<svg xmlns="http://www.w3.org/2000/svg" xmlns:xlink="http://www.w3.org/1999/xlink" width="3026.057" height="2849.683" viewBox="0 0 3026.057 2849.683">
  <defs>
    <filter id="Sans_titre" x="0" y="0" width="3026.057" height="2849.683" filterUnits="userSpaceOnUse">
      <feOffset dy="3" input="SourceAlpha"/>
      <feGaussianBlur stdDeviation="3" result="blur"/>
      <feFlood flood-opacity="0.161"/>
      <feComposite operator="in" in2="blur"/>
      <feComposite in="SourceGraphic"/>
    </filter>
  </defs>
  <g transform="matrix(1, 0, 0, 1, 0, 0)" filter="url(#Sans_titre)">
    <path id="Sans_titre-2" data-name="Sans titre" d="M2085.08,1462.4c-120.036,0-253.54-45.414-405.183-137.031-31.586-19.326-63.586-39.369-94.757-59.437-117.51-74.978-238.827-152.21-379.058-182.866-86.36-18.928-179.442-20.067-269.146-21.2-148.272-1.9-288.53-3.8-404.333-77.232-51.4-32.578-84.247-74.213-92.259-117.361-8.424-45.805,10.538-97.691,52.248-141.6,89.27-94.654,224.478-116.619,367.691-139.7,114.134-18.558,232.053-37.489,323.875-97.294,35.4-23.1,66.547-52.251,96.458-80.264,28.651-26.879,58.119-54.916,91.821-77.624,75.386-50.722,168.9-74.958,262.4-68.517,29.06-.394,51.807,7.183,68.658,22.337,41.683,37.861,40.423,116.991,39.6,193.455-.435,35.962-.851,70.046,2.526,99.96,16,127.952,108.231,247.976,235.865,305.882,50.956,23.1,106.556,37.121,160.889,50.373,40.014,9.823,80.873,20.067,120.03,34.061,112.05,39.761,184.059,109.786,193.331,187.409,4.2,37.1-5.487,77.232-28.65,119.632-47.586,84.042-132.244,147.275-232.9,173.784A452.538,452.538,0,0,1,2085.08,1462.4ZM1605.362,264.15c-82.983,0-164.266,23.867-231.249,68.911-33.261,22.731-62.736,50.351-91.386,77.23-29.91,28.407-61.08,57.557-96.867,80.658-92.237,60.175-210.592,79.5-325.161,98.036-142.369,23.1-277.137,45.07-366.02,138.958-40.835,43.539-59.8,94.262-51.372,139.326,7.987,42.407,40.011,83.277,90.971,115.463,115.395,73.056,254.829,74.96,402.658,76.858,90.12,1.139,183.2,2.272,269.97,21.574,140.694,30.679,262.4,108.279,380.345,183.631,30.735,19.67,62.762,40.111,94.756,59.039,198.793,120.024,366.019,160.159,511.738,123.061,99.835-26.135,183.643-88.6,230.813-171.88,23.163-41.665,32.852-81.4,28.65-117.758-8.864-76.467-80.458-145.377-191.214-185.137-38.748-13.993-80.049-24.214-119.621-34.06-54.333-13.625-110.368-27.642-161.331-50.723-128.452-58.322-221.54-179.461-237.534-308.176-3.792-29.914-3.377-64-2.526-100.331,1.26-76.094,2.11-154.481-38.748-191.578-16-14.76-37.488-21.572-65.288-21.572h-1.26v-2.665l-.442,2.665A273.232,273.232,0,0,0,1605.362,264.15Zm462.866,1232.7c-105.3,0-221.948-33.692-352.518-101.837-10.539-5.309-20.637-10.986-31.176-16.662-36.222-19.67-72.444-41.268-107.822-61.7-114.978-67.379-233.748-136.663-365.578-172.254a1626.122,1626.122,0,0,0-326.011-53.386c-14.734-.765-29.91-1.507-44.209-2.272-25.709-1.133-52.249-2.64-77.931-4.935-104.445-9.823-187.843-37.465-255.241-84.41-52.634-36.73-86.333-82.909-94.757-129.479-8.425-45.811,9.687-98.065,48.847-143.5,86.771-99.174,220.713-127.581,363.055-157.1,82.575-17.425,168.058-35.22,243.463-68.54a480.048,480.048,0,0,0,68.639-36.726c34.131-21.944,64.457-49.216,93.932-74.959,24.007-21.572,49.281-43.538,76.23-62.84,8.014-5.677,16-10.983,23.605-15.9,77.054-47.71,170.986-68.54,264.074-57.928,103.179,8.712,115.393,97.666,119.615,187.778.415,13.625.851,27.273,1.266,40.5.851,32.578,1.675,63.6,5.461,91.248a363.885,363.885,0,0,0,19.371,77.623c37.924,102.205,116.686,186.247,222.391,236.993,52.658,24.979,110.367,40.5,166.383,55.658,39.6,10.588,80.431,21.942,119.179,35.959,114.16,42.406,188.688,116.6,198.813,198.763,4.643,39-4.637,82.535-27.385,125.309-45.06,83.674-127.608,148.04-225.735,176.8C2153.323,1491.177,2111.613,1496.854,2068.229,1496.854ZM1546.8,252.8c-76.23,0-150.765,20.831-214.378,60.2-7.571,4.935-15.585,10.219-23.6,15.9-26.507,19.325-51.781,41.268-75.795,62.864-29.5,26.114-59.82,52.992-94.348,75.329a510.442,510.442,0,0,1-69.067,37.1C993.8,537.5,908.286,555.3,825.329,572.72c-141.518,29.523-275.464,57.533-361.385,155.965-38.748,44.672-56.448,96.184-48.435,141.23,7.986,45.805,41.273,91.243,93.5,127.575,66.984,46.577,149.941,74.219,253.562,83.674,25.689,2.272,52.222,3.779,77.5,4.935q22.1,1.112,44.209,2.272a1635.863,1635.863,0,0,1,326.862,53.362c132.245,35.591,251.45,105.266,366.428,172.645,35.378,20.441,71.6,42.033,107.387,61.709,10.124,5.677,20.657,11.353,30.761,16.656,184.052,95.792,339.479,123.435,475.1,84.439,97.718-28.413,179-92.388,224.066-175.291,22.306-42.406,31.995-85.2,26.942-123.8-10.1-81.4-83.808-154.856-196.676-196.491-38.748-14.023-79.2-25.376-118.8-35.964-56.008-15.156-114.127-31.047-166.765-56.026-106.14-51.114-185.753-135.922-223.651-238.524a358.238,358.238,0,0,1-19.371-77.994c-3.819-28.014-4.643-59.064-5.488-91.618-.415-13.254-.851-26.879-1.266-40.5-4.2-92.754-16-176.425-116.653-185.137l.409-2.271-.409,1.9A369.914,369.914,0,0,0,1546.8,252.8Zm505.018,1279.274c-99.4,0-210.591-28.407-331.472-85.175-10.539-4.935-20.637-10.238-31.177-15.156-42.969-21.568-86.769-45.04-128.894-67.771-109.932-59.063-223.209-120.006-344.505-157.869-19.4-6.044-38.774-12.486-57.3-18.163-89.7-28.781-173.954-56.424-275.022-66.27-21.9-2.272-44.644-3.4-66.132-4.543-21.053-1.133-43.385-2.266-64.437-4.538-107.817-10.588-198.376-43.148-269.972-97.3-37.924-29.149-85.946-76.858-96.9-141.2-4.612-27.275-5.049-82.168,45.5-145.774,84.246-104.477,218.165-139.326,359.683-175.657,77.932-20.067,158.369-40.9,230.4-74.218a560.06,560.06,0,0,0,69.067-37.861c32.027-20.808,61.5-45.415,89.711-69.282,26.975-22.708,54.768-45.809,84.243-65.481,8.013-5.307,16-10.613,24.423-15.154,79.2-45.045,175.629-62.47,265.367-46.945v.371c106.555,18.56,122.965,103.737,130.543,188.938,1.695,17.4,2.546,35.2,3.812,52.228,1.676,29.172,3.35,56.792,7.163,82.164,19.786,137.058,112.017,257.823,246.814,323.7,53.891,26.509,113.718,43.907,171.4,60.937,39.183,11.377,80.049,23.472,118.355,38.254,89.711,34.066,190.805,107.514,204.28,210.49,5.487,41.659-3.377,86.705-25.689,131.01-41.71,82.138-123.407,149.523-219.014,180.2A500.033,500.033,0,0,1,2051.819,1532.071ZM1489.534,239.936c-69.074,0-138.992,18.166-198.377,52.251-8.014,4.541-16.443,9.825-24.014,15.131-29.475,19.7-57.275,42.774-84.243,65.5-28.624,23.843-57.69,48.45-90.126,69.652a538.032,538.032,0,0,1-69.509,37.862c-72.444,33.319-152.875,54.151-230.787,74.588-141.1,36.332-274.636,70.79-358.032,174.526-21.461,26.877-56.01,81.028-45.06,143.5,10.95,63.607,58.122,110.919,96.046,139.7,70.746,53.76,160.893,86.314,268.272,96.926,21.079,2.272,42.976,3.4,64.464,4.544,21.9,1.133,44.209,2.639,66.548,4.538,101.068,10.22,185.727,37.471,275.458,66.62,18.526,6.068,37.9,12.118,57.275,18.187,121.29,37.863,235.015,99.174,344.947,157.863,42.118,22.707,85.918,46.179,128.894,67.385,10.1,4.935,20.63,10.215,31.144,15.15,180.293,84.416,338.22,106.007,469.2,63.981,94.783-30.656,176.065-97.3,217.339-178.7,22.339-43.913,31.176-88.586,25.689-129.485-13.475-101.837-113.282-174.152-202.169-207.845-38.306-14.758-79.172-26.5-118.355-38.231-57.684-17.03-117.51-34.458-171.843-61.335-135.615-66.246-228.7-188.169-248.489-325.97-3.786-25.372-5.487-52.992-7.163-82.164-.844-17.031-2.11-34.826-3.786-52.228-3.786-40.9-10.124-87.471-29.91-122.3s-52.222-56.028-98.133-63.976v-.371A427.539,427.539,0,0,0,1489.534,239.936Zm542.058,1327.725c-92.672,0-195-23.472-306.2-69.675-10.533-4.146-20.631-8.684-31.17-13.625-55.157-24.973-111.608-52.621-166.356-79.866-98.984-49.216-201.754-99.963-307.043-137.428-37.924-13.649-72.886-28.407-107-43.172-73.71-31.421-143.628-61.335-231.638-73.08-26.54-3.778-53.509-5.285-80.022-6.81-19.813-1.139-40.034-2.272-59.412-4.544-112.868-11.354-208.476-48.824-284.3-110.551-38.748-31.789-87.6-84.042-99.395-153.319-7.987-47.318,7.162-99.572,42.535-147.649,81.309-110.551,215.665-151.817,358.009-195.727,72.444-22.337,147.005-45.438,215.664-78.388a626.353,626.353,0,0,0,69.074-38.6c29.884-19.325,58.119-41.661,85.068-63.234,29.91-23.843,60.645-48.45,93.5-68.516,8.013-4.936,16.436-9.848,24.858-14.389,80.464-42.033,179.857-55.657,266.6-36.355,99.835,26.507,128.485,92.383,141.518,190.072,2.968,21.2,5.078,42.774,6.753,63.976,2.526,25.743,4.637,50.351,8.423,73.058a422.118,422.118,0,0,0,21.052,81.4c38.333,104.109,122.583,195.352,231.665,251.384,56.008,28.775,118.354,48.077,178.148,67.012,38.339,12.118,77.938,24.6,115.835,39.387,91.406,35.964,194.591,113.191,209.741,221.844,5.9,43.931-2.526,91.616-24.43,137.054-39.572,82.535-117.088,149.547-212.26,183.607C2141.939,1558.954,2088.45,1567.661,2031.591,1567.661ZM1433.934,227.053c-63.606,0-128.894,15.525-184.494,44.674-8.422,4.541-16.845,9.083-24.832,14.019-32.852,20.066-63.613,44.674-93.5,68.517-26.975,21.573-55.184,43.91-85.51,63.6a573.161,573.161,0,0,1-69.509,38.626c-68.632,33.32-143.6,56.4-216.053,78.736-141.516,43.538-275.46,84.809-355.919,194.589-34.935,47.342-49.7,99.2-41.685,145.774,11.8,68.512,59.8,120.392,98.545,151.813,75.409,61.335,170.579,98.432,282.624,109.786,19.786,1.9,40.008,3.405,59.385,4.544,26.533,1.531,53.924,3.4,80.458,6.81,88.444,12.119,158.369,41.665,232.489,73.454,34.111,14.391,69.074,29.54,106.971,43.166,105.3,37.471,208.066,88.212,307.485,137.428,54.333,26.883,110.757,54.893,165.941,79.871,10.54,4.568,21.053,9.106,31.176,13.649,179,74.563,334.843,89.345,462.86,43.142,94.347-34.06,171.019-100.33,210.618-182.1,21.9-45.046,30.326-91.99,23.987-135.524-14.741-107.514-117.069-184-207.63-219.6-37.924-14.758-77.5-27.25-115.829-39.369-60.236-18.929-122.556-38.622-179.006-67.38-109.517-56.05-194.591-148.04-232.924-252.914a425.689,425.689,0,0,1-21.053-81.77c-3.786-23.1-5.9-47.316-8.422-73.452-2.111-20.808-3.786-42.774-6.747-63.6-13.474-99.2-40.839-161.665-139.407-187.778A357.765,357.765,0,0,0,1433.934,227.053Zm575.344,1377.706q-127.64,0-279.243-55.652c-10.539-3.778-21.079-7.949-31.586-12.119-77.5-30.656-157.109-67.753-234.19-103.344-77.912-35.964-158.785-73.453-238.8-105.266-45.911-18.169-86.36-40.111-125.959-61.311-68.632-37.121-133.1-71.947-219.014-85.946-29.475-4.935-59.794-6.833-89.711-8.708-19.371-1.139-39.157-2.669-58.97-4.544-116.657-12.486-220.276-55.284-299.035-123.8-39.6-34.458-89.3-91.249-101.508-165.444-7.986-47.336,5.9-100.7,39.186-149.547,79.171-116.987,214.789-165.834,358.007-217.691C795,487.52,863.635,462.542,927.248,430.357c24.007-12.119,47.17-25.35,69.483-39.368,27.8-17.8,53.924-37.862,79.607-57.164,32.852-25,67.4-51.116,104.036-71.552,8.422-4.541,16.845-9.083,25.709-13.253,82.957-39.762,183.208-49.216,267.86-25.743,105.3,37.1,135.621,98.06,152.473,191.185,4.636,24.608,7.571,49.98,10.533,74.588q3.789,34.061,8.838,64.74a475.183,475.183,0,0,0,21.9,82.905c39.19,106.772,123.407,198.389,236.308,258.194,57.683,30.288,121.7,51.885,183.61,72.32,38.339,12.884,77.5,25.744,115.42,40.894,118.77,47.686,201.318,137.036,215.228,233.2,6.312,48.475-1.7,97.691-22.747,142.731-37.488,81.794-112.458,149.944-205.54,187.041C2134.777,1593.779,2074.567,1604.759,2009.279,1604.759Zm-631.353-1391.7c-58.125,0-117.53,12.86-170.168,37.861-8.422,4.148-17.26,8.689-25.274,13.23-36.637,20.461-70.769,46.574-103.62,71.576-25.274,19.3-51.807,39.368-79.581,57.164a764,764,0,0,1-69.509,39.738c-64.022,32.556-132.687,57.186-199.228,81.029C587.763,565.143,452.557,613.988,373.8,730.215c-32.849,48.451-46.323,101.072-38.748,147.643,12.211,73.454,61.5,129.486,100.683,163.937,78.321,68.145,181.09,110.551,297.332,123.038,19.377,1.9,39.19,3.411,58.561,4.544,29.91,1.9,60.236,3.778,89.711,8.714,86.769,14.385,151.616,49.216,220.274,86.308,39.19,21.206,80.022,43.172,125.524,61.335,80.015,31.818,160.888,69.283,238.8,105.242,77.081,35.591,156.688,72.32,234.184,103.367,10.1,4.17,21.052,8.323,31.176,12.119,177.74,65.113,331.472,73.062,456.989,22.707,92.231-36.724,166.357-104.477,203.838-185.505a251.865,251.865,0,0,0,22.754-141.207c-13.89-95.045-95.614-183.631-213.118-230.943-37.488-15.156-77.081-28.407-114.984-40.9-61.9-20.833-125.926-42.033-184.052-72.688-113.744-60.2-197.962-152.186-237.56-259.724a482.5,482.5,0,0,1-21.9-83.647c-3.786-20.831-6.312-42.033-8.838-65.134-2.962-24.607-5.9-49.98-10.533-74.588-16.851-91.989-46.761-152.559-150.356-189.285A366.824,366.824,0,0,0,1377.926,213.058ZM1984.421,1643c-76.645,0-160.044-14.39-249.339-42.774-10.533-3.4-21.073-6.815-31.586-10.612-118.77-41.268-241.353-96.534-360.116-149.92-37.079-16.656-75.386-34.061-112.874-50.349-50.547-22.339-93.932-50.723-135.615-77.991-66.139-43.148-128.485-84.416-215.664-101.078-32-6.068-65.7-8.34-98.133-10.612-19.377-1.133-39.6-2.64-58.976-4.538-122.143-13.257-230.786-60.57-313.771-136.663-40.448-37.1-90.97-98.065-104.032-177.563-7.574-47.709,5.049-101.463,35.785-151.445,77.084-124.942,214.815-182.1,360.971-242.3,59.385-24.607,121.29-49.98,179.415-80.636,24.423-12.883,47.612-26.508,69.509-40.5,24.423-15.919,48.437-33.32,71.6-49.98,37.073-26.878,75.379-54.522,116.244-76.094,9.682-4.935,18.111-9.083,26.118-12.489,85.925-37.12,186.169-42.8,269.126-15.153l-.824,1.9.824-1.9c98.133,43.167,141.109,93.518,163.857,192.32,6.312,28.014,10.513,57.163,14.734,85.571,2.942,19.7,5.461,38.6,8.838,56.792a498.8,498.8,0,0,0,22.748,84.806c40.014,107.888,125.524,202.168,241.353,265.009,59.794,32.554,126.341,56.423,190.779,79.13,37.073,13.252,75.821,26.877,112.458,42.009,120.881,49.975,205.54,143.87,220.709,244.966,7.163,50.349-.436,101.464-21.481,148.408-35.813,81-108.23,150.68-198.793,190.423C2127.614,1629.738,2058.981,1643,1984.421,1643ZM1321.891,198.669a399.694,399.694,0,0,0-156.259,32.185c-8.007,3.406-16.844,7.554-26.124,12.489-40.832,21.2-77.5,47.71-115.8,75.724-23.163,16.659-46.761,34.061-71.626,49.957-21.9,14.019-45.06,27.643-69.892,40.527-58.561,30.655-120.056,56.028-179.857,81.006-145.3,60.2-283.034,116.623-359.68,241.167-30.35,49.608-42.973,102.6-35.4,149.547,12.65,78.757,63.2,138.953,103.208,175.659,82.546,75.725,190.366,122.67,311.658,135.921,19.378,2.272,39.6,3.4,58.976,4.544,32.845,2.266,66.548,4.17,98.568,10.612,88.009,17.03,150.764,57.924,216.9,101.464,41.683,27.251,84.659,55.634,135.206,77.6,37.482,16.289,75.795,33.693,112.868,50.349,118.355,53.386,240.911,108.653,359.681,149.92,10.539,3.405,21.073,7.207,31.612,10.612,176.045,56.026,327.686,56.791,451.093,2.272,89.7-39.761,161.713-108.653,197.111-188.916,20.637-46.57,28.215-97.293,21.052-146.907-15.176-99.933-98.984-193.08-218.6-242.67-36.631-15.15-74.97-28.775-112.458-42.033-64.431-22.707-130.978-46.547-191.214-79.124-116.244-63.215-202.578-157.869-242.587-266.516a499.539,499.539,0,0,1-22.747-85.2q-5.065-27.249-8.864-56.769c-4.2-28.407-8.423-57.557-14.734-85.2-22.754-98.8-63.587-146.882-162.155-190.42C1398.121,204.346,1360.224,198.669,1321.891,198.669Zm635.581,1484.088q-101.1,0-216.93-31.053-17.659-4.547-31.586-9.082c-172.252-51.114-352.1-134.023-472.548-191.947-54.775-26.118-99.419-60.57-142.369-93.888-64.437-49.981-125.518-96.926-215.228-116.228-34.547-7.575-70.769-9.847-106.147-12.118-19.786-1.133-40.008-2.64-59.794-4.912-125.519-13.649-242.2-66.644-328.123-149.944-41.273-40.129-93.083-105.242-106.557-189.284C268.5,822.6,290.4,766.939,310.626,730.583c75.384-134.391,216.9-200.267,366.846-269.942,51.807-24.214,105.316-49.215,156.694-77.229,25.683-14,48.43-27.62,69.483-41.268,21.073-13.625,42.118-28.014,61.931-42.01,43.384-30.284,84.223-58.692,130.134-80.658,10.533-4.912,18.962-8.689,26.975-11.725,88.445-34.455,189.513-35.962,270.386-4.171,109.082,57.163,149.941,102.6,174.805,193.456,8.831,31.814,14.3,65.134,19.786,97.318,2.935,16.266,5.487,31.791,8.422,47.316a556.552,556.552,0,0,0,23.572,86.707c40.45,109.021,127.635,205.573,245.58,272.193,62.32,34.849,131.829,60.961,198.786,85.94,35.813,13.252,73.295,27.269,108.673,42.4,122.965,51.88,209.325,150.312,226.177,256.319a290.784,290.784,0,0,1-19.812,154.458c-33.676,80.637-103.595,151.053-191.63,193.851C2119.627,1666.468,2042.539,1682.756,1957.472,1682.756ZM1267.143,183.515a395.214,395.214,0,0,0-142.778,26.878c-8.014,3.036-16,6.813-26.949,11.748-45.911,21.966-86.776,50.351-129.745,80.265-20.2,13.995-40.839,28.384-62.32,42.4-21.079,13.625-44.242,27.249-69.925,41.268-51.372,28.385-105.3,53.363-157.1,77.23C528.817,532.958,387.71,598.464,312.739,732.114c-19.812,35.567-41.711,90.851-32.023,151.795,13.5,83.3,64.872,148.408,105.732,187.8,85.483,82.909,201.315,135.53,326.422,149.155,19.786,2.266,40.008,3.4,59.385,4.935,35.371,2.266,72.009,4.911,106.556,12.095,90.562,19.694,151.615,67.012,216.488,116.987,42.949,33.325,87.6,67.776,141.933,93.521,120.465,57.533,299.887,140.465,472.166,191.579,9.682,3.013,19.786,5.677,31.586,9.082,174.363,46.553,323.894,40.5,445.19-18.561,87.178-42.4,156.667-112.449,190.364-192.321a284.876,284.876,0,0,0,19.813-152.952c-16.436-105.242-102.361-202.559-224.093-254.047-35.78-15.132-72.859-28.757-108.64-42.4-67.4-24.979-136.907-51.1-199.669-85.946-118.77-66.615-206.364-163.908-246.814-273.717a573.84,573.84,0,0,1-23.572-87.449c-2.961-15.525-5.487-31.049-8.422-47.316-5.487-32.184-10.948-65.5-19.786-97.318-24.865-90.089-65.288-134.763-173.545-191.556C1353.912,191.091,1310.943,183.515,1267.143,183.515Zm660,1540.509c-57.294,0-117.946-6.816-182.377-20.832-10.539-2.271-21.046-4.911-31.585-7.575-148.272-37.1-315.888-102.211-472.575-183.239-57.71-29.914-103.185-70.417-146.986-109.412-63.606-56.791-123.842-110.153-216.923-132.125-36.637-8.708-75.386-11.353-112.874-13.619-20.221-1.53-41.268-2.669-61.5-5.309-132.679-15.156-254.386-73.056-342.831-163.172-60.235-60.961-97.72-130.612-108.67-201.4-9.687-62.1,10.512-118.891,29.061-155.615C353.6,586.345,501.017,510.251,656.836,429.615,699.8,407.649,744.02,384.547,786.99,359.94c23.572-13.254,47.177-27.62,69.925-42.01,17.26-10.983,34.52-22.731,50.956-33.713,48.437-32.556,93.938-63.6,145.719-85.942,9.273-4.148,18.553-7.554,27.8-10.96,91.406-31.814,192.916-29.543,271.672,6.418v.394l.415-.394c100.679,61.728,155.019,98.454,185.753,194.614,11.364,34.826,18.111,72.294,24.858,107.885,2.526,12.883,5.052,26.508,7.578,39.391a607.732,607.732,0,0,0,24.423,88.953c40.859,110.177,129.719,209.375,250.191,279.026,65.281,37.495,137.725,65.878,207.649,93.123,34.521,13.649,69.9,27.274,104.445,42.033,125.082,54.152,213.527,156.73,231.638,267.673a302.411,302.411,0,0,1-18.526,160.135c-31.995,79.9-99.394,151.819-184.9,197.256C2111.2,1703.957,2024.429,1724.024,1927.146,1724.024ZM1212.81,167.619a386.584,386.584,0,0,0-130.16,22.337c-8.838,3.035-18.111,6.813-27.358,10.613-51.4,22.337-96.874,52.992-145.3,85.548-16.442,11.353-33.7,22.708-50.963,33.691-23.189,14.783-46.346,28.778-69.918,42.4-42.976,24.607-87.627,47.339-130.161,69.676C503.542,512.15,356.537,588.244,283.24,732.855c-18.524,36.356-38.31,92.756-29.061,154.091,10.537,70.043,47.611,139.326,107.408,199.9,88.033,89.742,208.915,147.275,340.744,162.033,20.228,2.272,41.274,3.8,61.5,5.309,37.9,2.64,76.652,5.3,113.725,14.017,93.49,22.339,154.141,76.093,218.163,132.884,43.794,38.978,89.3,79.106,146.563,109.02,156.285,81.4,323.9,146.142,471.731,183.24,10.539,2.663,21.073,4.935,31.612,7.207,172.253,37.466,320.082,24.214,439.288-39,85.074-45.07,151.622-116.625,183.643-195.732a302.414,302.414,0,0,0,18.111-159.02c-17.7-110.177-105.731-212.015-229.962-265.775-34.138-14.758-69.925-28.775-104.056-42.009-70.333-27.269-142.784-55.658-208.481-93.515-120.881-70.049-210.586-169.614-251.451-280.533a601.849,601.849,0,0,1-24.423-89.35c-2.526-12.883-5.045-26.137-7.571-39.391-6.754-35.962-13.474-72.688-24.865-107.885-30.734-95.025-84.217-131.38-184.467-192.714C1310.118,177.073,1262.091,167.619,1212.81,167.619Zm681.9,1599.944a853.812,853.812,0,0,1-144.889-12.884c-10.54-1.88-21.488-3.778-32-6.05-159.629-31.812-327.271-93.889-472.166-174.917-60.645-33.692-106.556-80.263-151.207-124.941-63.171-63.6-122.965-123.405-219.014-148.408C836.686,1290.539,795,1287.5,755,1284.839c-20.663-1.506-42.125-3.013-62.762-5.285-138.169-15.9-264.925-78.757-357.6-176.056-61.5-64.74-99.834-138.561-111.195-213.521-7.575-49.608,1.262-103.736,25.686-157.49,72.885-159.4,228.7-247.238,393.818-340.734,31.584-17.8,64.435-36.355,96.872-55.287,23.163-13.624,46.761-28.384,69.918-43.144,12.624-7.971,24.838-16.289,37.053-24.237,54.333-35.591,105.731-69.282,163.85-92.383,10.1-3.777,19.378-7.183,28.215-9.848,93.932-29.52,195.851-23.078,272.938,17.054l-.851,1.506,1.26-1.135c13.474,9.454,26.533,18.166,38.339,26.507,80.016,54.5,128.452,87.448,158.778,169.219,13.91,37.862,22.332,78.758,30.319,118.127q3.176,15.883,6.338,31.79a699.076,699.076,0,0,0,25.247,90.875c42.125,113.191,130.161,212.021,254.828,285.842,68.249,40.5,144.044,71.182,217.754,101.464,32.437,13.258,66.548,26.883,98.984,41.268,126.777,56.032,217.748,163.172,237.125,279.4a318.226,318.226,0,0,1-16.851,165.812c-30.735,80.661-93.906,151.818-178.155,200.661C2102.775,1742.952,2005.058,1767.563,1894.71,1767.563ZM1158.885,151.33a396.34,396.34,0,0,0-117.919,18.189c-8.838,2.641-18.111,6.047-28.209,9.848-58.125,22.708-109.108,56.4-163.421,91.989-12.235,7.947-24.858,16.266-37.073,24.237-23.156,14.76-46.761,29.52-70.333,43.145-32.436,18.931-64.873,37.491-96.869,55.657C480.355,487.52,324.539,574.991,252.5,733.62c-24.423,52.995-33.26,107.14-25.686,155.989,11.362,74.195,49.7,147.642,110.345,211.991,91.82,96.926,218.164,159.026,355.486,175.291,20.631,2.272,42.118,3.8,62.755,5.3,40.423,2.646,82.133,5.677,121.3,15.9,97.309,25,157.1,85.572,220.716,149.179,44.209,44.672,90.12,90.852,150.349,124.171,144.459,80.637,312.1,142.737,471.316,174.526,10.513,2.272,21.052,4.17,32,5.7,170.578,28.758,316.322,8.69,433.417-59.454,83.366-48.451,146.128-119.265,176.889-199.137a319.19,319.19,0,0,0,16.852-164.7c-18.962-115.463-109.082-221.47-235.45-277.128-32.436-14.391-66.139-28.016-98.984-41.268-73.71-29.89-149.947-60.943-218.163-101.469-125.524-74.189-213.969-173.76-256.087-287.343-10.54-29.914-19.377-60.2-25.274-91.248-2.117-10.589-4.2-21.2-6.319-31.79-8.007-39.368-15.994-79.894-29.91-117.733-29.91-81.03-77.905-113.585-157.512-168.106-12.215-8.319-24.865-17.031-38.339-26.508C1266.727,163.078,1213.66,151.33,1158.885,151.33Zm698.343,1660.906a861.953,861.953,0,0,1-102.361-6.074c-10.513-1.133-21.462-2.64-31.995-4.147-165.123-25-336.96-85.94-472.166-166.6-62.735-37.465-109.082-89.719-154.142-139.694-62.762-70.422-122.147-137.036-222.391-164.679-41.274-11.354-85.509-14.39-128.043-17.428-21.052-1.506-42.949-3.007-64.022-5.677-144.044-17.03-276.287-84.409-371.9-189.284-62.347-68.145-101.507-146.142-113.72-225.64-7.6-49.982.412-105.266,22.75-159.767,72.42-176.816,240.913-279.024,419.917-386.932q27.166-16.475,54.332-32.926c21.053-12.883,45.911-28.037,70.333-43.932,6.727-4.171,13.475-8.713,20.228-12.86,61.47-39.761,119.595-77.229,185.727-100.7,9.273-3.429,19.377-6.441,29.059-9.106,96.873-26.485,199.228-16.266,274.2,28.014l-.851,1.135.851-1.135c27.793,21.6,52.631,39,74.97,54.522,63.171,43.933,104.881,73.082,133.5,142.363,16.851,40.133,26.125,83.671,35.4,126.075,2.084,8.689,3.786,17.8,5.877,26.484A651.558,651.558,0,0,0,1548.919,617c42.534,113.956,132.239,215.419,259.873,293.043,71.593,43.539,151.615,77.232,229.111,110.177,30.326,12.86,61.938,26.118,92.264,39.743,128.867,57.924,221.949,169.24,242.586,290.748a337.011,337.011,0,0,1-15.585,171.886c-29.065,79.9-90.126,152.578-171.408,204.066C2094.353,1782.69,1982.31,1812.236,1857.228,1812.236ZM1104.988,134.3a406.531,406.531,0,0,0-105.7,14.389c-9.715,2.641-19.4,5.677-28.651,9.083C904.909,181.244,846.79,218.735,785.73,258.1c-6.754,4.171-13.474,8.713-20.228,12.883-24.423,15.9-49.281,31.026-70.334,43.909Q668,331.37,640.835,347.821c-178.154,107.908-346.62,209.745-418.654,385.8-21.9,54.128-29.912,108.647-22.311,158.261,11.774,78.733,50.96,156.356,112.869,224.11,95.2,104.5,226.589,171.138,369.806,188.175,21.053,2.64,42.949,4.17,64.022,5.677,42.949,3.031,87.6,6.044,128.868,17.8,101.094,28.01,160.9,95.021,224.066,165.812,44.651,49.981,91,101.837,153.317,139.326,134.8,80.637,306.2,141.231,470.906,166.209,10.507,1.5,21.455,3.031,31.995,4.17,165.941,19.67,313.77-7.972,427.495-79.9,80.867-51.114,141.1-123.411,170.162-202.541a335.4,335.4,0,0,0,15.591-170.374c-20.637-120.4-112.874-230.949-240.917-288.481-30.32-13.625-61.9-26.877-92.231-39.761-77.522-32.927-157.544-66.62-229.553-110.551-128.043-77.991-218.19-179.828-260.724-294.158a653.648,653.648,0,0,1-26.1-93.146c-2.111-8.689-3.812-17.4-5.9-26.484-9.273-42.033-18.546-85.571-34.956-125.7-28.242-68.146-69.925-97.3-132.271-140.833-21.9-15.525-47.17-32.949-74.97-54.522C1223.758,148.689,1165.632,134.3,1104.988,134.3Zm715.168,1725.249c-19.786,0-40.014-.759-60.236-2.266-11.773-.765-22.312-1.9-32-2.645-170.168-17.8-342.005-75.352-471.724-158.255-64.873-41.268-111.608-98.806-156.694-154.458-62.736-77.623-122.147-150.686-226.177-181.365-42.949-12.486-89.269-15.891-134.355-19.3-21.9-1.5-44.651-3.031-66.548-5.677-149.942-18.163-287.235-90.11-386.63-202.168-64.022-72.682-104.032-154.458-115.832-237.385-7.574-50.349-.85-106.007,19.374-161.642,72.447-199.9,259.437-318.789,457.815-444.863l13.5-8.713c18.935-12.095,37.9-23.843,56.859-36.332l1.26-.765c65.7-42.009,133.92-85.547,208.89-109.785,10.124-3.406,20.228-6.071,29.5-8.341,99.393-23.843,202.578-9.454,275.438,38.626l-1.266,1.506,1.7-1.506c37.488,32.185,70.334,54.522,98.984,74.588,53.482,36.726,92.231,62.84,120.03,123.409,19.786,42.8,30.326,89.742,40.859,135.157,1.675,6.813,2.941,13.254,4.617,20.067a759.548,759.548,0,0,0,26.975,94.656c42.943,115.089,134.355,218.824,264.483,299.853,75.411,46.95,160.479,84.042,242.2,120.006,27.358,12.119,56.009,24.605,83.393,37.1,130.985,59.828,225.741,175.682,248.08,302.125,10.533,59.063,5.461,120.4-13.916,177.563-27.8,79.5-86.334,153.325-164.681,207.477C2085.08,1824.354,1960.407,1859.548,1820.155,1859.548ZM1051.505,117.268a404.1,404.1,0,0,0-94.348,11.354c-9.689,2.271-19.377,4.935-29.5,8.341-74.528,23.843-139.4,65.482-208.066,109.414l-1.26.742q-28.4,18.178-56.859,36.356L648,292.187C450.47,417.867,263.866,536.365,191.445,735.518c-19.812,54.893-26.536,110.551-18.962,160.135,11.8,82.535,51.81,163.937,115.394,236.258,98.57,111.684,235.451,183.233,384.543,201.4,21.9,2.64,44.651,4.17,66.132,5.677,45.06,3.031,91.821,6.442,135.206,19.3,104.861,31.047,164.681,104.5,227.852,182.492,45.06,55.267,91.412,112.823,155.843,154.09,129.31,82.535,300.738,140.068,470.465,157.5,10.1,1.133,20.637,1.875,32,2.64,164.266,11.354,310.01-23.472,421.618-100.7,77.905-53.754,136.057-127.208,163.415-205.964,19.37-56.773,24.422-117.734,13.91-176.429-21.9-125.677-116.244-240.766-246.4-300.2-27.384-12.51-56.008-25-83.4-37.121-82.133-35.959-166.791-73.056-242.612-120.374-130.57-81.4-222.365-185.529-265.75-301.359a763.049,763.049,0,0,1-26.975-94.656c-1.668-6.813-2.935-13.254-4.61-20.066-10.124-45.045-21.073-91.99-40.45-134.393-27.384-59.828-66.133-85.942-119.179-122.3-29.06-19.672-61.937-42.4-99.419-74.588C1181.224,133.928,1118.053,117.268,1051.505,117.268Zm731.162,1791.5h-18.111c-10.513-.368-21.461-.742-32.436-1.133-173.928-9.847-345.772-64.348-471.724-149.547-66.963-45.414-113.725-108.279-158.785-169.216-62.755-84.807-122.141-164.7-230.371-198.4-45.086-13.993-93.938-17.422-141.518-20.827-22.339-1.507-45.911-3.411-68.249-6.05a627.634,627.634,0,0,1-400.955-215.42c-64.46-76.467-105.3-162.407-117.945-249.877-7.575-51.488-2.113-106.749,16-163.546C225.118,525.381,412.984,388.347,599.562,265.68c23.161-15.154,46.761-30.679,70.774-45.81,69.067-43.933,137.29-85.177,214.786-107.514,9.689-3.035,19.786-5.306,30.326-7.577,100.653-20.831,206.8-1.9,277.133,49.586l-1.26,1.135,1.26-1.135c44.235,41.639,82.984,66.64,117.095,88.977C1357.7,274.392,1395.6,299,1422.986,353.5c23.163,45.833,34.962,96.184,46.762,145.005l2.935,12.512a793.669,793.669,0,0,0,27.8,96.531c44.209,117.734,134.764,221.1,269.126,306.668,80.458,51.488,171.013,92.364,258.613,131.751,23.6,10.588,47.605,21.574,71.178,32.56,133.1,61.7,229.969,182.1,253.567,313.852a377.7,377.7,0,0,1-12.65,183.607c-26.1,79.13-82.133,154.084-157.518,210.881C2076.242,1866.755,1938.095,1908.764,1782.667,1908.764ZM996.315,99.473a386.842,386.842,0,0,0-80.431,8.319c-10.124,2.271-20.222,4.565-29.91,7.577C808.893,137.705,741.079,178.6,672.012,222.512c-23.6,15.154-47.587,30.679-70.775,45.81-186.166,122.3-373.569,259.331-439.7,467.571-18.112,56.4-23.162,111.31-16,162.407C158.159,985,198.581,1070.944,263.042,1146.67a622.313,622.313,0,0,0,399.281,214.286c22.312,2.64,45.911,4.538,68.223,6.045,47.606,3.411,96.458,6.816,142.369,20.832,109.082,33.693,168.9,114.324,232.073,199.5,45.06,60.594,91.821,123.429,157.954,168.475,125.082,84.807,296.51,138.958,470.029,149.179,10.948.765,21.488,1.133,32.436,1.133,162.155,3.4,305.783-38.628,415.716-121.163,74.97-56.4,130.569-130.986,156.667-209.351a371.562,371.562,0,0,0,12.65-182.1c-23.163-131.01-119.621-250.245-251.886-311.58-23.578-10.986-48-21.965-71.158-32.56-87.626-39.761-178.6-80.655-259.054-132.143-134.764-85.94-225.735-189.675-269.971-308.175a773.836,773.836,0,0,1-27.8-96.531l-2.941-12.489c-11.384-48.845-23.6-99.2-46.346-144.634-27.358-53.757-64.846-78.365-112.458-109.021-34.112-22.337-73.268-47.338-117.5-88.977C1139.1,119.539,1069.175,99.473,996.315,99.473Zm741.292,1860.779c-177.331-1.875-349.168-53.362-471.315-141.206-68.632-49.216-115.393-117.361-160.454-183.631-63.2-91.984-122.582-178.7-235.041-215.4-47.171-15.156-98.542-18.934-148.239-22.73-23.163-1.507-47.177-3.4-70.775-6.442-160.04-19.676-311.684-102.976-415.717-228.653-66.108-79.522-107.819-170.005-120.856-261.622a406.848,406.848,0,0,1,12.624-165.444c61.909-223.37,259.437-380.865,424.554-493.314,26.536-17.772,49.7-33.3,70.772-46.55,66.111-42.033,138.146-83.671,219.012-104.108,10.513-2.665,21.053-4.936,31.15-6.836,103.205-18.166,209.767,4.565,278.426,59.828l-.442.371.851-.371c49.287,50.351,93.088,76.858,131.836,100.331,45.911,27.643,82.133,49.586,109.932,99.937,26.1,47.339,39.157,99.96,51.807,151.446l2.091,8.713A918.254,918.254,0,0,0,1476.468,603c44.651,118.873,136.881,224.507,274.2,313.858,85.483,55.652,181.942,100.7,275.464,143.87,19.786,9.082,39.573,18.537,59.385,27.642,136.881,64.74,233.748,186.247,259.022,325.205a395.391,395.391,0,0,1-10.948,189.284c-25.274,80.263-77.5,154.481-150.792,214.286-108.672,88.609-250.6,137.82-411.494,142.364C1759.5,1960.252,1748.556,1960.252,1737.607,1960.252ZM944.1,81.307a395.9,395.9,0,0,0-69.925,6.048c-10.1,1.9-20.221,3.8-30.734,6.441-80.458,20.437-152.466,61.7-218.191,103.737-21.049,13.253-44.21,28.778-70.746,46.574C240.7,457.629,163.647,618.9,131.21,735.892A401.339,401.339,0,0,0,118.56,900.2c13.062,90.852,54.335,180.967,120.058,260.1,103.594,124.936,254.387,207.844,413.607,227.538,23.156,3.014,47.17,4.544,70.333,6.418,49.7,3.8,101.5,7.207,149.09,22.731,113.309,36.73,173.1,124.176,236.716,216.558,45.06,65.873,91.821,134.023,159.629,182.842,121.705,87.47,293.134,138.585,469.614,140.465,10.949,0,21.9,0,32.436-.374,160.044-4.538,301.562-53.386,409.377-141.6,72.886-59.8,124.673-133.258,149.947-213.148a390.227,390.227,0,0,0,10.948-188.151c-25.273-138.193-121.3-258.959-257.326-323.331-19.813-9.082-39.184-18.537-59.412-27.642-93.49-43.516-189.948-88.585-275.873-144.238-137.732-89.351-229.963-195.732-275.023-314.991a916.929,916.929,0,0,1-28.65-98.431l-2.084-8.713c-12.65-51.092-25.716-103.737-51.4-150.682-27.384-49.586-63.171-71.158-108.673-98.8-38.748-23.472-82.542-49.98-132.238-100.331C1097.416,104.78,1022.439,81.307,944.1,81.307ZM1742.244,2013.27c10.949-.4,21.9-1.139,32.437-1.9,156.259-11.721,300.3-69.651,405.592-163.172,70.333-62.468,120.03-137.8,144.044-217.691A408.859,408.859,0,0,0,2334,1435.151c-26.54-143.87-125.518-269.944-264.516-336.956-12.208-5.677-24.423-11.727-37.046-17.4-102.354-48.843-208.5-99.192-302-161.292-139.843-92.756-233.339-200.637-278.4-320.667A910.551,910.551,0,0,1,1422.57,498.9l-.851-3.407c-13.91-54.151-27.793-109.808-57.294-159.023-28.209-46.944-65.282-67.752-108.646-91.989-42.56-23.866-91-50.745-144.479-109.414l-2.526,1.9c53.489,59.04,102.361,85.942,144.895,109.785,42.949,23.844,79.607,44.3,107.406,90.854,29.059,48.844,43.385,104.5,56.859,158.629l.825,3.407a946.662,946.662,0,0,0,29.5,100.332c45.469,120.4,139.407,229.045,279.659,322.192,93.932,62.468,200.053,112.823,302.413,161.642,12.208,6.074,24.858,11.751,37.073,17.428,138.141,66.638,236.274,191.58,262.814,334.684a413.81,413.81,0,0,1-9.688,193.822c-24.014,79.528-73.3,154.482-143.193,216.558-104.472,92.756-248.1,150.312-403.507,162.039-10.533.76-21.488,1.525-32.437,1.9-176.48,6.045-351.694-43.172-469.2-132.125-69.489-52.621-116.244-126.075-161.3-196.883-63.613-99.939-123.407-194.2-241.353-233.956-49.261-16.662-103.185-20.833-155.408-24.611-24.007-1.9-48.43-3.4-72.445-6.442-165.117-20.833-321.372-108.279-427.929-240.4-66.959-82.535-109.082-176.8-122.144-271.843A453.273,453.273,0,0,1,100.887,737.4c43.8-185.51,176.892-354.358,406.855-516.023,24.012-17.031,48.023-32.926,70.772-47.316,57.684-36.726,135.181-81.4,222.8-100.7,10.1-2.271,20.637-4.171,31.177-5.677,104.854-15.153,211,11.725,276.7,70.023l2.111-1.877c-66.132-59.063-173.519-85.942-279.25-70.811q-15.77,2.294-31.586,5.677c-88.029,19.7-165.941,64.369-223.651,101.466-22.749,14.389-46.734,30.679-71.184,47.709C275.253,381.906,141.722,551.124,97.924,737.79a459.522,459.522,0,0,0-9.687,167.716c13.062,95.787,55.6,190.417,122.994,273.717,107.408,132.884,264.075,220.728,430.454,241.537,24.014,3.037,48.846,4.935,72.86,6.442,51.807,3.773,105.731,7.575,154.577,24.237,116.659,39.363,176.48,133.258,239.651,232.45,45.06,71.181,92.237,144.612,162.155,197.63,111.607,84.41,274.613,133.252,441.814,133.252C1722.431,2013.639,1732.12,2013.639,1742.244,2013.27Zm-59.821,55.653c-156.258,0-304.5-45.806-406.443-126.834-71.184-56.8-117.92-135.53-163.422-211.623-63.58-106.772-123.4-207.477-244.7-250.274-50.963-17.8-107-21.942-161.331-26.112-24.423-1.9-50.112-3.779-74.971-6.81-172.254-21.971-334.408-114.721-444.753-254.795C118.148,1105.4,74.763,1006.97,61.288,906.639,54.126,850.216,55.8,793.057,67.6,737.025c38.748-197.255,174.366-384.663,391.294-542.156,24.836-17.8,48-33.691,71.184-48.451,83.4-52.992,155.816-84.042,227.851-98.06,10.539-1.877,21.488-3.777,32.436-4.912,108.666-12.489,216.053,18.537,280.925,81.4l-2.117,1.506,2.117-1.506c56.444,66.246,109.082,93.125,155.428,116.967,42.949,21.966,80.022,40.9,108.646,85.571,32.436,51.115,48.021,109.043,62.347,165.442l.409,1.135c8.864,33.691,17.7,68.146,30.326,101.1,46.346,122.664,138.992,229.81,283.036,327.845,101.51,68.542,216.079,124.568,327.271,178.328l16.436,7.943c140.667,68.916,241.741,199.16,269.977,348.31,13.059,67.011,10.1,134.788-8.014,201.035-22.748,79.9-70.334,156.356-137.29,221.1-102.77,98.824-244.729,164.311-399.722,183.631q-17.036,2.26-32.845,3.411C1725.393,2068.158,1703.911,2068.923,1682.423,2068.923ZM837.952,43.816a392.681,392.681,0,0,0-47.177,2.665c-10.948,1.135-21.481,3.012-31.994,4.913-71.626,13.995-143.632,45.044-227.027,97.666-23.161,14.783-46.323,30.679-71.185,48.474C244.08,354.657,108.874,541.671,70.563,738.164a516.059,516.059,0,0,0-6.338,168.843c13.5,99.571,56.859,198,125.107,284.335C299.265,1330.668,460.569,1423.032,632,1445c24.422,3.031,50.111,4.911,74.533,6.809,54.333,4.17,110.783,7.949,162.181,26.118,122.556,42.792,182.792,144.262,246.372,251.4,45.086,75.7,91.821,154.067,162.6,210.858,114.978,92.014,290.2,138.193,468.763,123.435,10.54-.765,21.488-1.9,32.436-3.4,154.168-19.3,295.686-84.439,397.6-182.871,66.547-64.366,113.718-140.46,136.466-219.964,18.111-65.872,21.052-132.884,7.987-199.9-28.209-148.408-128.452-277.887-268.269-346.406l-16.442-7.949c-111.192-54.151-226.176-109.81-327.68-178.7-144.895-98.059-237.976-205.97-284.3-329.008-12.65-32.926-21.488-67.775-30.319-101.466l-.442-1.135C1378.75,436.8,1363.6,378.87,1331.164,328.52c-28.208-43.909-64.872-62.84-107.406-84.436C1177,220.241,1123.949,193.362,1067.5,126.352,1014.433,74.1,928.923,43.816,837.952,43.816Zm818.782,2081.138c-146.563,0-282.62-43.172-376.117-121.9-72.009-60.593-118.77-144.261-164.266-224.9-64.022-114.329-124.231-222.235-250.19-267.649-52.631-19.326-111.166-23.472-167.616-27.642-25.274-1.9-51.81-3.8-77.5-7.207-178.592-22.707-345.8-120.374-459.515-267.649C91.612,1117.124,47.376,1013.779,33.49,910.044a586.035,586.035,0,0,1,2.937-171.512c33.7-209.745,166.792-410.777,374.857-566.371,24.45-18.166,48.435-34.826,71.622-49.215C564.189,71.459,639.985,40.41,715.4,27.921c10.506-1.9,21.488-3.035,32.845-4.171,111.608-9.454,219.429,25.743,282.185,92.012h-.409l.409-.394C1089.4,189.192,1145.846,215.7,1195.958,238.8c42.976,20.066,80.458,37.468,109.517,79.871,35.787,52.622,52.222,113.956,66.963,167.713l.409,1.158c9.28,34.062,18.553,69.282,31.177,102.581C1450.785,713.553,1544.717,823.339,1691.7,924.8c110.348,76.1,236.716,138.567,347.908,193.46,142.784,70.416,245.963,205.2,275.438,359.663a456.941,456.941,0,0,1-6.728,206.729c-21.487,80.239-66.957,157.863-130.57,224.507-101.5,105.242-241.346,177.93-393.818,204.439-10.948,1.875-21.9,3.405-32.845,4.912A712.564,712.564,0,0,1,1656.734,2124.955ZM784.879,24.515c-11.8,0-24.014.371-35.787,1.506-10.949,1.135-21.9,2.271-32.436,4.171C641.685,42.681,566.3,73.73,485.431,124.846c-23.187,14.389-46.76,31.049-71.184,49.215C206.594,329.284,73.913,529.923,40.652,738.532a595.281,595.281,0,0,0-2.963,170.747C51.6,1012.647,95.4,1115.249,165.321,1206.1c112.869,146.516,279.661,243.809,457.4,266.54,25.274,3.4,51.808,5.285,77.081,7.183,56.866,4.17,115.4,8.714,168.467,27.642,126.784,45.811,187.429,154.458,251.866,269.179,45.086,80.637,91.822,163.937,163.441,224.133,112.867,94.631,288.088,137.8,468.354,115.089,10.948-1.524,21.9-3.031,32.845-4.935,151.622-26.112,290.614-98.426,391.708-203.3,63.171-66.246,108.23-143.478,129.718-223.368,17.7-67.777,20.222-137.06,6.748-205.578-29.495-153.717-131.829-287.734-273.783-357.759-111.607-54.893-237.949-117.361-348.324-193.852-147.414-101.837-241.762-212.015-288.932-335.817-12.624-33.3-21.9-68.888-31.15-102.973l-.435-1.135C1356,433.392,1339.587,372.428,1303.78,320.2c-29.066-42.033-66.112-59.064-108.673-78.759-50.112-23.472-107.38-49.98-166.356-124.174C973.158,58.576,882.188,24.515,784.879,24.515Zm851.634,2157.6c-137.3,0-263.665-41.268-350.408-117.729-72.886-64.372-119.621-152.951-164.681-238.523-64.457-121.9-125.109-237.391-255.671-285.842C811,1519.584,750.359,1515.041,691.8,1510.871c-26.1-1.9-53.487-3.8-79.611-7.207C307.251,1464.3,47.376,1210.27,7.8,913.081c-18.112-137.06,7.162-282.063,73.709-419.491C145.1,362.21,243.23,242.948,365.373,148.689,471.519,66.917,572.614,20.344,674.122,6.348c125.491-17.425,249.749,21.572,316.732,99.567,61.061,81.006,121.705,106.749,175.194,129.086,43.82,18.56,81.309,34.455,111.192,75.352,39.6,54.128,56.859,118.127,73.71,180.2,8.864,31.814,17.7,64.74,29.5,95.79,43.794,115.854,128.868,219.963,259.873,318.022,117.92,88.212,254.8,159,384.955,224.109,105.3,52.645,191.214,141.6,241.762,250.275,49.7,107.14,61.911,225.64,34.111,333.522-55.184,215.793-260.724,397.526-511.323,452.81A693.544,693.544,0,0,1,1636.513,2182.114ZM732.657,4.819A436.077,436.077,0,0,0,674.122,8.99c-101.1,14.019-201.753,60.2-307.048,141.6C244.93,244.478,147.209,363.346,83.6,494.355,17.491,631.018-7.783,775.653,10.329,912.316c39.16,296.057,297.773,548.947,601.858,588.34,26.124,3.4,53.071,5.279,79.611,7.183,58.97,4.538,119.615,9.081,175.214,29.54,131.829,49.216,192.916,165.047,257.353,287.342,45.06,85.181,91.406,173.393,164.265,237.391,117.5,103.712,309.57,142.339,500.784,100.307,249.755-54.893,454.028-235.86,508.8-450.515,57.275-224.134-60.672-474.01-274.2-580.759-130.16-65.113-267.451-136.295-385.4-224.507-131.829-98.432-216.9-202.933-261.139-319.161-11.8-31.418-20.63-63.974-29.469-95.788-16.851-61.7-34.553-125.68-73.3-179.437-29.468-40.526-66.957-56.422-109.932-74.588-53.891-22.731-114.978-48.474-176.474-130.245C931.884,42.31,835.835,4.819,732.657,4.819Zm0,0" transform="translate(6.3 763.02) rotate(-18)" fill="#aedcb7" opacity="0.1"/>
  </g>
</svg>
