<svg xmlns="http://www.w3.org/2000/svg" width="34.5" height="27.509" viewBox="0 0 34.5 27.509">
  <path id="Icon_awesome-cogs" data-name="Icon awesome-cogs" d="M27.608,10.3l-.442.771a.666.666,0,0,1-.814.291,5.957,5.957,0,0,1-1.731-1,.67.67,0,0,1-.151-.846l.442-.771a4.654,4.654,0,0,1-.857-1.477h-.89a.666.666,0,0,1-.658-.555,6.074,6.074,0,0,1,0-2,.67.67,0,0,1,.658-.561h.89a4.654,4.654,0,0,1,.857-1.477L24.47,1.9a.663.663,0,0,1,.151-.846,6.029,6.029,0,0,1,1.731-1,.666.666,0,0,1,.814.291l.442.771a4.791,4.791,0,0,1,1.709,0l.442-.771A.666.666,0,0,1,30.573.05a5.957,5.957,0,0,1,1.731,1,.67.67,0,0,1,.151.846l-.442.771a4.654,4.654,0,0,1,.857,1.477h.89a.666.666,0,0,1,.658.555,6.074,6.074,0,0,1,0,2,.67.67,0,0,1-.658.561h-.89a4.654,4.654,0,0,1-.857,1.477l.442.771a.663.663,0,0,1-.151.846,6.029,6.029,0,0,1-1.731,1,.666.666,0,0,1-.814-.291l-.442-.771a4.79,4.79,0,0,1-1.709,0Zm-.566-3.17a2.014,2.014,0,0,0,2.846-2.846A2.014,2.014,0,0,0,27.041,7.129Zm-6.216,8.3,1.817.906a1.3,1.3,0,0,1,.566,1.569,12.727,12.727,0,0,1-2.3,3.547,1.289,1.289,0,0,1-1.633.286l-1.569-.906a9.261,9.261,0,0,1-2.96,1.709v1.811a1.29,1.29,0,0,1-1.062,1.272,12.123,12.123,0,0,1-4.092,0,1.3,1.3,0,0,1-1.078-1.272V22.537a9.362,9.362,0,0,1-2.96-1.709l-1.569.9a1.29,1.29,0,0,1-1.633-.286A12.708,12.708,0,0,1,.081,17.9a1.3,1.3,0,0,1,.566-1.569l1.8-.906a9.339,9.339,0,0,1,0-3.418L.647,11.1A1.285,1.285,0,0,1,.081,9.533,12.658,12.658,0,0,1,2.356,5.986,1.289,1.289,0,0,1,3.989,5.7l1.569.906A9.261,9.261,0,0,1,8.518,4.9V3.08A1.284,1.284,0,0,1,9.574,1.813a12.3,12.3,0,0,1,4.1-.005A1.3,1.3,0,0,1,14.75,3.08V4.892A9.362,9.362,0,0,1,17.71,6.6l1.569-.906a1.29,1.29,0,0,1,1.633.286,12.64,12.64,0,0,1,2.27,3.547,1.289,1.289,0,0,1-.539,1.569L20.826,12a9.369,9.369,0,0,1,0,3.423Zm-6.34,1.138c3.192-4.151-1.547-8.89-5.7-5.7C5.6,15.016,10.335,19.755,14.486,16.563Zm13.122,9.849-.442.771a.666.666,0,0,1-.814.291,5.957,5.957,0,0,1-1.731-1,.67.67,0,0,1-.151-.846l.442-.771a4.654,4.654,0,0,1-.857-1.477h-.89a.666.666,0,0,1-.658-.555,6.074,6.074,0,0,1,0-2,.67.67,0,0,1,.658-.561h.89a4.654,4.654,0,0,1,.857-1.477l-.442-.771a.663.663,0,0,1,.151-.846,6.029,6.029,0,0,1,1.731-1,.666.666,0,0,1,.814.291l.442.771a4.791,4.791,0,0,1,1.709,0l.442-.771a.666.666,0,0,1,.814-.291,5.957,5.957,0,0,1,1.731,1,.67.67,0,0,1,.151.846l-.442.771a4.654,4.654,0,0,1,.857,1.477h.89a.666.666,0,0,1,.658.555,6.074,6.074,0,0,1,0,2,.67.67,0,0,1-.658.561h-.89a4.654,4.654,0,0,1-.857,1.477l.442.771a.663.663,0,0,1-.151.846,6.029,6.029,0,0,1-1.731,1,.666.666,0,0,1-.814-.291l-.442-.771A4.791,4.791,0,0,1,27.608,26.413Zm-.566-3.175a2.014,2.014,0,0,0,2.846-2.846A2.014,2.014,0,0,0,27.041,23.237Z" transform="translate(0.001 -0.008)" fill="#ff9300" opacity="0.634"/>
</svg>
