<svg xmlns="http://www.w3.org/2000/svg" width="33.999" height="34" viewBox="0 0 33.999 34">
  <path id="icons8-home" d="M20,2a1.417,1.417,0,0,0-.99.4L3.556,15.043l-.053.042-.053.044v0a1.415,1.415,0,0,0,.966,2.451H5.833V33.167A2.833,2.833,0,0,0,8.667,36H31.333a2.833,2.833,0,0,0,2.833-2.833V17.583h1.417a1.417,1.417,0,0,0,.966-2.454l-.022-.017q-.047-.042-.1-.08l-2.263-1.851V7.667A1.417,1.417,0,0,0,32.749,6.25H31.333a1.417,1.417,0,0,0-1.417,1.417V9.706L20.96,2.379A1.417,1.417,0,0,0,20,2Zm4.25,18.417h5.667V31.75H24.25Z" transform="translate(-3 -2)" fill="#105067" opacity="0.634"/>
</svg>
