<svg xmlns="http://www.w3.org/2000/svg" width="33.5" height="35.797" viewBox="0 0 33.5 35.797">
  <path id="Icon_awesome-user-alt" data-name="Icon awesome-user-alt" d="M16.75,20.136c5.2,0,9.422-4.51,9.422-10.068S21.952,0,16.75,0,7.328,4.51,7.328,10.068,11.548,20.136,16.75,20.136Zm8.375,2.237H21.52a10.728,10.728,0,0,1-9.54,0H8.375C3.749,22.373,0,26.379,0,31.322v1.119A3.254,3.254,0,0,0,3.141,35.8H30.359A3.254,3.254,0,0,0,33.5,32.441V31.322C33.5,26.379,29.751,22.373,25.125,22.373Z" fill="#dab6c2" opacity="0.634"/>
</svg>
