<svg xmlns="http://www.w3.org/2000/svg" xmlns:xlink="http://www.w3.org/1999/xlink" width="52.5" height="41" viewBox="0 0 52.5 41">
  <defs>
    <filter id="Icon_awesome-ticket-alt" x="0" y="0" width="52.5" height="41" filterUnits="userSpaceOnUse">
      <feOffset dy="3" input="SourceAlpha"/>
      <feGaussianBlur stdDeviation="3" result="blur"/>
      <feFlood flood-opacity="0.161"/>
      <feComposite operator="in" in2="blur"/>
      <feComposite in="SourceGraphic"/>
    </filter>
  </defs>
  <g transform="matrix(1, 0, 0, 1, 0, 0)" filter="url(#Icon_awesome-ticket-alt)">
    <path id="Icon_awesome-ticket-alt-2" data-name="Icon awesome-ticket-alt" d="M7.667,10.25H26.833v11.5H7.667ZM31.625,16A2.875,2.875,0,0,0,34.5,18.875v5.75A2.875,2.875,0,0,1,31.625,27.5H2.875A2.875,2.875,0,0,1,0,24.625v-5.75A2.875,2.875,0,0,0,2.875,16,2.875,2.875,0,0,0,0,13.125V7.375A2.875,2.875,0,0,1,2.875,4.5h28.75A2.875,2.875,0,0,1,34.5,7.375v5.75A2.875,2.875,0,0,0,31.625,16ZM28.75,9.771a1.437,1.437,0,0,0-1.437-1.437H7.187A1.437,1.437,0,0,0,5.75,9.771V22.229a1.437,1.437,0,0,0,1.437,1.437H27.313a1.437,1.437,0,0,0,1.437-1.437Z" transform="translate(9 1.5)" fill="#3a56a3" opacity="0.634"/>
  </g>
</svg>
